# xmcd
#
# Track frame offsets:
# 150
# 7596
# 11716
# 17828
# 28632
# 41658
# 56500
# 65925
# 74709
# 77128
# 90309
# 99521
# 117098
# 128888
# 143021
# 153240
# 164323
# 165429
# 177838
# 187710
# 209163
# 223182
# 234790
# 248535
# 263377
# 276587
# 290191
# 292706
# 298514
# 310815
# 327673
# 331003
# 343876
# 350609
#
# Disc length: 4788 seconds
#
#
# Revision: 0
# Processed by: cddbd v1.5.2PL0 Copyright (c) Steve Scherf et al.
# Submitted via: FreeRIP 2.951 
#
DISCID=ef12b222
DTITLE=Hosted By Asheru - The Boondocks Mixtape
DYEAR=1900
DGENRE=Hip-Hop
TTITLE0=Intro(Asheru)
TTITLE1=The BoonDocks(Asheru)
TTITLE2=The Hustle(Black Lincolns)
TTITLE3=More Or Less(TKweli HiTek)
TTITLE4=Let It Go(Lil Bro Mos Def)
TTITLE5=The Bodega(Skyzoo)
TTITLE6=Gangstalicious Ressurection
TTITLE7=Asheru Speaks
TTITLE8=Panthers(Dead Prez Common Last Poets)
TTITLE9=Politricks(Akir)
TTITLE10=Revolution(Asheru)
TTITLE11=Nag Champa(Common)
TTITLE12=They Say(MethodMan L HIll CL Smooth)
TTITLE13=It Dont Feel Right(Roots)
TTITLE14=Fahrenheit(D Raze SeanP AG)
TTITLE15=Breaking News(Sway)
TTITLE16=The Format(AZ Rakim)
TTITLE17=Lets Go(P Monch)
TTITLE18=Mood Swings(asheru)
TTITLE19=Boondocks Freestyle(ToughJunkie)
TTITLE20=Old School(DangerDoom)
TTITLE21=Whip You With A Strap(Ghostface)
TTITLE22=Angels(DOOM Ghostface)
TTITLE23=HipHop(Blackstar)
TTITLE24=Wishing(Masta Ace Edo G)
TTITLE25=Gansta Ressurection pttwo
TTITLE26=New York Shit(HiTek)
TTITLE27=New York Shit(JGrae T
TTITLE28=They Reminisce oVER You
TTITLE29=Asheru Speaks Two
TTITLE30=Niggaz(Asheru)
TTITLE31=Little People(Procussions)
TTITLE32=Smiling Faces(Gnarls Barkley)
TTITLE33=Outro(Asheru)
EXTD=
EXTT0=
EXTT1=
EXTT2=
EXTT3=
EXTT4=
EXTT5=
EXTT6=
EXTT7=
EXTT8=
EXTT9=
EXTT10=
EXTT11=
EXTT12=
EXTT13=
EXTT14=
EXTT15=
EXTT16=
EXTT17=
EXTT18=
EXTT19=
EXTT20=
EXTT21=
EXTT22=
EXTT23=
EXTT24=
EXTT25=
EXTT26=
EXTT27=
EXTT28=
EXTT29=
EXTT30=
EXTT31=
EXTT32=
EXTT33=
PLAYORDER=
